<svg width="434" height="158" viewBox="0 0 434 158" fill="none" xmlns="http://www.w3.org/2000/svg">
<path d="M73.4301 94.6908L51.4025 57.895C51.8104 57.7183 52.2232 57.5466 52.6236 57.3549C57.8823 54.7401 62.0075 51.1322 64.997 46.5343C68.0791 41.8444 69.6203 36.5248 69.6203 30.5709C69.6203 24.617 68.1693 19.2527 65.2698 14.7443C62.3678 10.1439 58.3349 6.53864 53.1665 3.92367C48.0028 1.30624 42.0638 0 35.3566 0H0V94.6908H18.6303V61.1417H32.9126L52.3558 94.6908H73.4301ZM18.6303 16.9089H34.5412C39.1642 16.9089 42.9268 18.1704 45.8288 20.6957C48.821 23.2212 50.3171 26.5129 50.3171 30.5709C50.3171 33.186 49.6364 35.5296 48.2781 37.6047C47.0097 39.6797 45.2411 41.3018 42.9744 42.4738C40.7979 43.6457 38.3062 44.2328 35.4944 44.2328H18.6327V16.9064L18.6303 16.9089Z" fill="white"/>
<path d="M135.92 40.4492C133.743 35.6694 130.344 31.9722 125.721 29.3573C121.187 26.7423 115.476 25.4336 108.586 25.4336C102.875 25.4336 98.0241 26.3343 94.0363 28.1381C90.1388 29.8524 86.9664 32.1066 84.5174 34.9006C82.0706 37.6054 80.212 40.4019 78.9411 43.288L94.7142 48.6994C96.3454 46.0846 98.3392 44.1464 100.698 42.8824C103.055 41.6208 105.684 40.989 108.586 40.989C111.758 40.989 114.253 41.8 116.066 43.4249C117.97 44.9574 119.329 47.1669 120.147 50.053C120.512 51.2175 120.802 52.484 121.02 53.8398H105.054C96.2604 53.8398 89.4158 55.6884 84.5199 59.3859C79.7164 62.9935 77.3125 68.4049 77.3125 75.6179C77.3125 82.2015 79.5338 87.2968 83.977 90.9047C88.5101 94.5123 94.857 96.3161 103.015 96.3161C111.173 96.3161 117.112 93.746 120.557 88.6056C120.975 87.9987 121.365 87.359 121.735 86.6948L122.053 94.6915H138.779L139.187 57.2212C139.277 50.7272 138.192 45.1366 135.925 40.4467L135.92 40.4492ZM119.466 73.9983C118.105 76.1629 116.247 77.9667 113.89 79.4097C111.623 80.7633 108.994 81.4374 106.002 81.4374C102.74 81.4374 100.201 80.8977 98.3868 79.8153C96.5731 78.6434 95.6675 77.0636 95.6675 75.0806C95.6675 72.5551 96.8008 70.6169 99.0672 69.2635C101.334 67.8203 105.414 67.0989 111.306 67.0989H121.505C121.505 69.4424 120.825 71.744 119.466 73.9983Z" fill="white"/>
<path d="M209.517 38.8268C207.523 34.2265 204.621 30.8452 200.813 28.6805C197.006 26.5159 192.428 25.4336 187.079 25.4336C181.73 25.4336 177.38 26.7871 173.482 29.4916C170.995 31.1985 168.864 33.4378 167.073 36.1846L166.275 27.0583H149.413V94.6965H167.363V59.254C167.363 53.571 168.586 49.2893 171.036 46.4032C173.575 43.517 177.155 42.1186 181.778 42.2107C184.315 42.2107 186.536 42.7977 188.44 43.9697C190.344 45.052 191.795 46.8558 192.79 49.3814C193.879 51.9066 194.421 55.4697 194.421 60.0676V94.6965H212.371V56.4152C212.461 49.1997 211.511 43.3353 209.517 38.8268Z" fill="white"/>
<path d="M269.377 70.2115C268.109 73.008 266.115 75.2623 263.393 76.9765C260.764 78.6882 257.817 79.5466 254.555 79.5466C251.292 79.5466 248.208 78.7355 245.578 77.1109C242.949 75.4885 240.91 73.3241 239.459 70.6169C238.008 67.8203 237.283 64.5758 237.283 60.8761C237.283 57.1765 238.008 53.9319 239.459 51.1354C240.91 48.3389 242.904 46.1742 245.443 44.6414C247.983 43.0193 250.927 42.2057 254.282 42.2057C257.637 42.2057 260.494 43.0168 263.12 44.6414C265.84 46.1742 267.834 48.2493 269.105 50.8641L285.966 44.9126C283.427 38.6006 279.349 33.776 273.728 30.4396C268.106 27.1031 261.897 25.4336 255.098 25.4336C248.298 25.4336 241.771 26.9663 236.332 30.034C230.893 33.0097 226.633 37.1574 223.551 42.4795C220.469 47.8013 218.928 53.9319 218.928 60.8761C218.928 67.8203 220.469 73.8639 223.551 79.2731C226.633 84.5949 230.939 88.7873 236.47 91.8552C241.998 94.8309 248.3 96.3186 255.373 96.3186C262.445 96.3186 268.472 94.5596 274.003 91.0416C279.624 87.5233 283.75 82.5646 286.376 76.163L269.377 70.2115Z" fill="white"/>
<path d="M353.011 38.8239C351.02 34.2232 348.117 30.8421 344.309 28.6775C340.592 26.5129 336.012 25.4306 330.574 25.4306C325.136 25.4306 320.874 26.7841 316.976 29.4886C314.624 31.1033 312.586 33.186 310.856 35.7312V0H292.906V94.6908H310.856V59.2483C310.856 53.5656 312.079 49.2836 314.527 46.3975C317.069 43.5113 320.647 42.1132 325.27 42.205C327.811 42.205 330.03 42.7924 331.934 43.9643C333.838 45.0466 335.334 46.8504 336.42 49.3757C337.509 51.9012 338.053 55.464 338.053 60.0619V94.6908H356.001V56.4095C356.001 49.194 355.005 43.3321 353.011 38.8239Z" fill="white"/>
<path d="M398.188 96.3161C391.301 96.3161 385.134 94.8284 379.693 91.8527C374.345 88.7848 370.13 84.5924 367.05 79.2731C364.057 73.951 362.561 67.8203 362.561 60.8761C362.561 53.9319 364.057 47.7988 367.05 42.4795C370.04 37.1574 374.211 33.0097 379.559 30.034C384.907 26.9687 391.027 25.4336 397.918 25.4336C404.806 25.4336 411.065 26.9663 416.41 30.034C421.758 33.0097 425.93 37.1574 428.92 42.4795C431.912 47.8013 433.409 53.9319 433.409 60.8761C433.409 67.8203 431.912 73.9535 428.92 79.2731C425.93 84.5949 421.758 88.7873 416.41 91.8527C411.152 94.8284 405.076 96.3161 398.188 96.3161ZM398.188 79.8128C401.545 79.8128 404.491 79.0018 407.027 77.3769C409.569 75.7523 411.516 73.5428 412.876 70.7488C414.326 67.8626 415.05 64.5708 415.05 60.8736C415.05 57.1764 414.326 53.9294 412.876 51.1329C411.423 48.2468 409.385 45.9925 406.756 44.3704C404.218 42.748 401.271 41.9344 397.918 41.9344C394.561 41.9344 391.708 42.7455 389.079 44.3704C386.541 45.9925 384.546 48.2493 383.094 51.1329C381.644 53.9294 380.919 57.174 380.919 60.8736C380.919 64.5733 381.644 67.8626 383.094 70.7488C384.546 73.5453 386.584 75.7548 389.213 77.3769C391.842 78.9993 394.835 79.8128 398.188 79.8128Z" fill="white"/>
<path d="M140.559 157.956C137.712 157.956 135.181 157.304 132.966 155.999C130.791 154.654 129.071 152.815 127.806 150.482C126.58 148.149 125.967 145.46 125.967 142.415C125.967 139.37 126.58 136.681 127.806 134.348C129.032 132.015 130.732 130.196 132.907 128.891C135.121 127.546 137.633 126.874 140.44 126.874C143.287 126.874 145.799 127.546 147.973 128.891C150.188 130.196 151.908 132.015 153.134 134.348C154.36 136.681 154.973 139.37 154.973 142.415C154.973 145.46 154.36 148.149 153.134 150.482C151.908 152.815 150.208 154.654 148.033 155.999C145.858 157.304 143.367 157.956 140.559 157.956ZM140.559 154.694C142.694 154.694 144.573 154.18 146.194 153.152C147.815 152.084 149.081 150.64 149.99 148.821C150.939 146.963 151.414 144.827 151.414 142.415C151.414 140.003 150.939 137.887 149.99 136.068C149.081 134.21 147.796 132.766 146.135 131.738C144.474 130.67 142.576 130.136 140.44 130.136C138.305 130.136 136.407 130.67 134.746 131.738C133.124 132.766 131.839 134.21 130.89 136.068C129.981 137.887 129.526 140.003 129.526 142.415C129.526 144.827 130 146.963 130.949 148.821C131.899 150.64 133.203 152.084 134.864 153.152C136.525 154.18 138.423 154.694 140.559 154.694Z" fill="white"/>
<path d="M114.937 157.243V127.585H118.496V157.243H114.937ZM116.776 119.873C116.143 119.873 115.59 119.636 115.115 119.161C114.641 118.687 114.403 118.133 114.403 117.501C114.403 116.828 114.641 116.275 115.115 115.84C115.59 115.365 116.143 115.128 116.776 115.128C117.448 115.128 118.002 115.365 118.437 115.84C118.911 116.275 119.149 116.828 119.149 117.501C119.149 118.133 118.911 118.687 118.437 119.161C118.002 119.636 117.448 119.873 116.776 119.873Z" fill="white"/>
<path d="M80.1885 157.247V115.725H83.7475V151.73L83.5696 157.247H80.1885ZM94.1873 157.958C91.696 157.958 89.4815 157.306 87.5438 156.001C85.6061 154.656 84.0836 152.818 82.9764 150.484C81.9087 148.112 81.3748 145.423 81.3748 142.417C81.3748 139.372 81.9087 136.683 82.9764 134.35C84.0836 132.017 85.6061 130.198 87.5438 128.893C89.4815 127.549 91.696 126.876 94.1873 126.876C96.7973 126.876 99.1107 127.549 101.127 128.893C103.144 130.198 104.726 132.017 105.873 134.35C107.02 136.683 107.593 139.372 107.593 142.417C107.593 145.423 107.02 148.112 105.873 150.484C104.726 152.818 103.144 154.656 101.127 156.001C99.1107 157.306 96.7973 157.958 94.1873 157.958ZM93.4755 154.755C95.5319 154.755 97.3509 154.241 98.9327 153.213C100.515 152.145 101.76 150.682 102.67 148.824C103.579 146.965 104.034 144.83 104.034 142.417C104.034 140.005 103.579 137.87 102.67 136.011C101.8 134.152 100.574 132.709 98.992 131.681C97.4102 130.613 95.5912 130.079 93.5348 130.079C91.6367 130.079 89.9363 130.613 88.4336 131.681C86.9704 132.709 85.8236 134.152 84.9932 136.011C84.1627 137.87 83.7475 140.005 83.7475 142.417C83.7475 144.83 84.1627 146.965 84.9932 148.824C85.8236 150.682 86.9704 152.145 88.4336 153.213C89.8967 154.241 91.5774 154.755 93.4755 154.755Z" fill="white"/>
<path d="M413.18 157.956C410.926 157.956 408.988 157.62 407.367 156.948C405.745 156.276 404.421 155.406 403.392 154.338C402.404 153.27 401.712 152.163 401.316 151.016L404.52 149.83C405.192 151.293 406.26 152.479 407.723 153.389C409.225 154.259 410.827 154.694 412.527 154.694C414.623 154.694 416.403 154.259 417.866 153.389C419.329 152.519 420.061 151.293 420.061 149.711C420.061 148.288 419.527 147.121 418.459 146.211C417.391 145.302 415.81 144.57 413.714 144.017L410.807 143.246C408.158 142.534 406.101 141.506 404.638 140.161C403.215 138.777 402.503 137.235 402.503 135.534C402.503 132.806 403.393 130.69 405.172 129.187C406.991 127.645 409.72 126.874 413.358 126.874C415.058 126.874 416.581 127.131 417.925 127.645C419.309 128.12 420.476 128.812 421.425 129.721C422.414 130.631 423.145 131.718 423.62 132.984L420.417 134.348C419.784 132.806 418.855 131.718 417.629 131.086C416.403 130.453 414.801 130.136 412.824 130.136C410.728 130.136 409.067 130.591 407.841 131.501C406.655 132.371 406.062 133.616 406.062 135.238C406.062 136.108 406.536 136.978 407.485 137.848C408.474 138.678 409.937 139.35 411.875 139.864L414.425 140.517C416.363 140.992 418.004 141.684 419.349 142.593C420.733 143.463 421.781 144.471 422.493 145.618C423.244 146.765 423.62 148.03 423.62 149.415C423.62 151.194 423.165 152.736 422.255 154.041C421.346 155.307 420.1 156.276 418.518 156.948C416.976 157.62 415.197 157.956 413.18 157.956Z" fill="white"/>
<path d="M383.693 157.956C380.845 157.956 378.315 157.304 376.1 155.999C373.925 154.654 372.205 152.815 370.939 150.482C369.714 148.149 369.101 145.46 369.101 142.415C369.101 139.37 369.714 136.681 370.939 134.348C372.165 132.015 373.846 130.196 375.981 128.891C378.156 127.546 380.628 126.874 383.396 126.874C386.204 126.874 388.576 127.566 390.514 128.95C392.491 130.295 393.994 132.173 395.022 134.585C396.05 136.958 396.564 139.706 396.564 142.83H371.236L372.6 141.703C372.6 144.432 373.055 146.765 373.965 148.703C374.874 150.64 376.159 152.123 377.82 153.152C379.521 154.18 381.478 154.694 383.693 154.694C385.986 154.694 387.924 154.14 389.506 153.033C391.127 151.886 392.392 150.423 393.302 148.643L396.268 150.482C395.517 151.945 394.528 153.25 393.302 154.397C392.116 155.504 390.712 156.374 389.09 157.007C387.469 157.64 385.67 157.956 383.693 157.956ZM372.897 140.636L371.414 139.568H394.251L392.768 140.695C392.768 138.599 392.373 136.76 391.582 135.178C390.83 133.597 389.763 132.371 388.379 131.501C386.995 130.591 385.334 130.136 383.396 130.136C381.498 130.136 379.738 130.591 378.117 131.501C376.535 132.371 375.27 133.597 374.32 135.178C373.371 136.721 372.897 138.54 372.897 140.636Z" fill="white"/>
<path d="M351.73 157.956C348.883 157.956 346.352 157.304 344.137 155.999C341.962 154.654 340.242 152.815 338.977 150.482C337.751 148.149 337.138 145.46 337.138 142.415C337.138 139.37 337.751 136.681 338.977 134.348C340.202 132.015 341.903 130.196 344.078 128.891C346.292 127.546 348.803 126.874 351.611 126.874C354.419 126.874 356.91 127.507 359.085 128.772C361.26 129.998 362.941 131.718 364.127 133.933L361.043 135.594C360.133 133.893 358.848 132.568 357.187 131.619C355.566 130.631 353.707 130.136 351.611 130.136C349.476 130.136 347.578 130.67 345.917 131.738C344.295 132.766 343.01 134.21 342.061 136.068C341.151 137.887 340.697 140.003 340.697 142.415C340.697 144.827 341.171 146.963 342.12 148.821C343.069 150.64 344.374 152.084 346.035 153.152C347.696 154.18 349.594 154.694 351.73 154.694C353.865 154.694 355.763 154.16 357.424 153.092C359.085 151.985 360.351 150.462 361.22 148.525L364.364 150.186C363.178 152.598 361.478 154.496 359.263 155.88C357.088 157.264 354.577 157.956 351.73 157.956Z" fill="white"/>
<path d="M306.062 157.244V127.586H309.383L309.621 133.043V157.244H306.062ZM327.356 157.244V142.059H330.915V157.244H327.356ZM327.356 142.059C327.356 138.777 326.961 136.286 326.17 134.585C325.419 132.885 324.371 131.738 323.026 131.145C321.721 130.512 320.238 130.196 318.577 130.196C315.77 130.196 313.575 131.244 311.993 133.34C310.411 135.396 309.621 138.283 309.621 142H307.426C307.426 138.836 307.881 136.128 308.79 133.873C309.7 131.619 311.024 129.899 312.764 128.713C314.544 127.487 316.699 126.874 319.23 126.874C321.524 126.874 323.54 127.349 325.28 128.298C327.06 129.207 328.444 130.67 329.433 132.687C330.461 134.704 330.955 137.373 330.915 140.695V142.059H327.356Z" fill="white"/>
<path d="M286.675 157.956C283.828 157.956 281.297 157.304 279.082 155.999C276.907 154.654 275.187 152.815 273.922 150.482C272.696 148.149 272.083 145.46 272.083 142.415C272.083 139.37 272.696 136.681 273.922 134.348C275.148 132.015 276.828 130.196 278.964 128.891C281.139 127.546 283.61 126.874 286.378 126.874C289.186 126.874 291.559 127.566 293.497 128.95C295.474 130.295 296.976 132.173 298.005 134.585C299.033 136.958 299.547 139.706 299.547 142.83H274.218L275.583 141.703C275.583 144.432 276.037 146.765 276.947 148.703C277.857 150.64 279.142 152.123 280.803 153.152C282.503 154.18 284.461 154.694 286.675 154.694C288.969 154.694 290.906 154.14 292.488 153.033C294.109 151.886 295.375 150.423 296.284 148.643L299.25 150.482C298.499 151.945 297.51 153.25 296.284 154.397C295.098 155.504 293.694 156.374 292.073 157.007C290.452 157.64 288.652 157.956 286.675 157.956ZM275.879 140.636L274.396 139.568H297.234L295.751 140.695C295.751 138.599 295.355 136.76 294.564 135.178C293.813 133.597 292.745 132.371 291.361 131.501C289.977 130.591 288.316 130.136 286.378 130.136C284.48 130.136 282.721 130.591 281.099 131.501C279.517 132.371 278.252 133.597 277.303 135.178C276.354 136.721 275.879 138.54 275.879 140.636Z" fill="white"/>
<path d="M261.068 157.243V127.585H264.627V157.243H261.068ZM262.907 119.873C262.274 119.873 261.721 119.636 261.246 119.161C260.771 118.687 260.534 118.133 260.534 117.501C260.534 116.828 260.771 116.275 261.246 115.84C261.721 115.365 262.274 115.128 262.907 115.128C263.579 115.128 264.133 115.365 264.568 115.84C265.042 116.275 265.28 116.828 265.28 117.501C265.28 118.133 265.042 118.687 264.568 119.161C264.133 119.636 263.579 119.873 262.907 119.873Z" fill="white"/>
<path d="M241.659 157.956C238.812 157.956 236.281 157.304 234.067 155.999C231.892 154.654 230.172 152.815 228.906 150.482C227.68 148.149 227.067 145.46 227.067 142.415C227.067 139.37 227.68 136.681 228.906 134.348C230.132 132.015 231.833 130.196 234.007 128.891C236.222 127.546 238.733 126.874 241.541 126.874C244.348 126.874 246.84 127.507 249.015 128.772C251.19 129.998 252.87 131.718 254.057 133.933L250.972 135.594C250.063 133.893 248.777 132.568 247.117 131.619C245.495 130.631 243.637 130.136 241.541 130.136C239.405 130.136 237.507 130.67 235.846 131.738C234.225 132.766 232.94 134.21 231.991 136.068C231.081 137.887 230.626 140.003 230.626 142.415C230.626 144.827 231.101 146.963 232.05 148.821C232.999 150.64 234.304 152.084 235.965 153.152C237.626 154.18 239.524 154.694 241.659 154.694C243.795 154.694 245.693 154.16 247.354 153.092C249.015 151.985 250.28 150.462 251.15 148.525L254.294 150.186C253.108 152.598 251.407 154.496 249.193 155.88C247.018 157.264 244.507 157.956 241.659 157.956Z" fill="white"/>
<path d="M211.318 157.956C209.063 157.956 207.126 157.62 205.504 156.948C203.883 156.276 202.558 155.406 201.53 154.338C200.542 153.27 199.85 152.163 199.454 151.016L202.657 149.83C203.329 151.293 204.397 152.479 205.86 153.389C207.363 154.259 208.965 154.694 210.665 154.694C212.761 154.694 214.54 154.259 216.004 153.389C217.467 152.519 218.198 151.293 218.198 149.711C218.198 148.288 217.664 147.121 216.597 146.211C215.529 145.302 213.947 144.57 211.851 144.017L208.945 143.246C206.295 142.534 204.239 141.506 202.776 140.161C201.352 138.777 200.64 137.235 200.64 135.534C200.64 132.806 201.53 130.69 203.31 129.187C205.129 127.645 207.857 126.874 211.495 126.874C213.196 126.874 214.718 127.131 216.063 127.645C217.447 128.12 218.614 128.812 219.563 129.721C220.551 130.631 221.283 131.718 221.757 132.984L218.554 134.348C217.922 132.806 216.992 131.718 215.766 131.086C214.54 130.453 212.939 130.136 210.962 130.136C208.866 130.136 207.205 130.591 205.979 131.501C204.793 132.371 204.199 133.616 204.199 135.238C204.199 136.108 204.674 136.978 205.623 137.848C206.612 138.678 208.075 139.35 210.013 139.864L212.563 140.517C214.501 140.992 216.142 141.684 217.487 142.593C218.871 143.463 219.919 144.471 220.63 145.618C221.382 146.765 221.757 148.03 221.757 149.415C221.757 151.194 221.303 152.736 220.393 154.041C219.484 155.307 218.238 156.276 216.656 156.948C215.114 157.62 213.334 157.956 211.318 157.956Z" fill="white"/>
<path d="M183.371 143.649C183.371 146.949 180.682 149.626 177.364 149.626C174.046 149.626 171.356 146.952 171.356 143.649C171.356 140.346 174.046 137.672 177.364 137.672C180.682 137.672 183.371 140.346 183.371 143.649Z" fill="white"/>
</svg>
